<svg width="25" height="25" viewBox="0 0 25 25" fill="none" xmlns="http://www.w3.org/2000/svg">
<path d="M12.5614 19.4622C16.1826 19.4622 19.1182 16.5265 19.1182 12.9053C19.1182 9.28401 16.1826 6.34839 12.5614 6.34839C8.9401 6.34839 6.00448 9.28401 6.00448 12.9053C6.00448 16.5265 8.9401 19.4622 12.5614 19.4622Z" fill="black"/>
<path d="M8.8153 12.7616C8.8153 12.7616 12.0633 11.3798 13.1897 10.8932C13.6215 10.6986 15.0859 10.0758 15.0859 10.0758C15.0859 10.0758 15.7618 9.80338 15.7054 10.4651C15.6867 10.7375 15.5365 11.6912 15.3863 12.7227C15.161 14.1823 14.9169 15.7782 14.9169 15.7782C14.9169 15.7782 14.8794 16.2258 14.5602 16.3037C14.2411 16.3815 13.7154 16.0312 13.6215 15.9533C13.5464 15.895 12.2134 15.0192 11.7253 14.591C11.5939 14.4742 11.4437 14.2407 11.7441 13.9682C12.42 13.326 13.2272 12.5281 13.7154 12.022C13.9407 11.7885 14.1659 11.2436 13.2272 11.9053C11.8943 12.8589 10.5801 13.7541 10.5801 13.7541C10.5801 13.7541 10.2797 13.9488 9.71647 13.7736C9.15322 13.5985 8.49612 13.3649 8.49612 13.3649C8.49612 13.3649 8.04557 13.073 8.8153 12.7616Z" fill="white"/>
</svg>
